<svg width="24" height="24" viewBox="0 0 24 24" fill="none" xmlns="http://www.w3.org/2000/svg">
<path d="M11.1837 13.1023L9.04939 16.0085C8.53042 16.7156 7.53138 16.8713 6.83076 16.3524L3.68446 14.0494C2.97736 13.5304 2.82166 12.5314 3.34064 11.8308L5.65009 8.68446C6.16907 7.97736 7.1681 7.82166 7.86872 8.34064L8.60826 8.88232L5.90958 12.5833C6.40909 13.0504 7.16161 13.4915 7.66761 13.9586C7.70005 13.9196 7.726 13.8742 7.75844 13.8353L7.84731 13.7043L7.84926 13.7056L11.4691 8.45741L9.07534 6.69937C7.46651 5.5187 5.1895 5.86901 4.00882 7.47784L1.69937 10.6241C0.5187 12.2395 0.86901 14.51 2.47784 15.6907L5.62414 18.0001C7.23946 19.1808 9.50999 18.8305 10.6907 17.2216L14.1094 12.5573L11.1837 13.1023Z" fill="#008DFF"/>
<path d="M21.4398 8.89855L18.2351 6.67344C16.5939 5.53169 14.3298 5.94687 13.1881 7.58813L9.89258 12.3368L12.8053 11.714L14.8618 8.74935C15.3613 8.02927 16.3538 7.84762 17.0739 8.34714L20.2786 10.5723C20.9987 11.0718 21.1803 12.0643 20.6808 12.7844L18.4557 15.9891C17.9562 16.7092 16.9636 16.8908 16.2436 16.3913L15.4885 15.8665L18.0924 12.0903C17.5734 11.6426 16.808 11.221 16.2955 10.7669C16.263 10.8058 16.2371 10.8512 16.2111 10.8966L16.1274 11.027H16.1268L12.6432 16.3718L15.0824 18.065C16.7236 19.2067 18.9877 18.7916 20.1294 17.1503L22.3545 13.9456C23.4963 12.3043 23.0811 10.0403 21.4398 8.89855Z" fill="#008DFF"/>
</svg>
