<svg width="1125" height="172" viewBox="0 0 1125 172" fill="none" xmlns="http://www.w3.org/2000/svg">
<path d="M884.584 60.6032H863.637V101.447C863.637 104.952 864.426 107.494 866.003 109.072C867.581 110.562 869.86 111.438 872.927 111.614C876.083 111.701 879.939 111.701 884.584 111.438V127.916C870.561 129.581 860.569 128.442 854.434 124.322C848.299 120.115 845.319 112.49 845.319 101.359V60.6032H829.718V42.8986H845.319V24.4928L863.637 19.0587V42.8986H884.584V60.6032Z" fill="#08061D"/>
<path d="M382.281 109.772V77.4307H430.224V58.762H382.281V27.6474H419.356L434.519 8.80333H377.811L362.561 24.0538V128.441H435.308V109.685H382.281V109.772Z" fill="#08061D"/>
<path d="M500.867 78.921L527.161 43.0735H505.6L490.087 64.1087" fill="#08061D"/>
<path d="M485.88 69.981L466.16 43.0735H458.797H444.774L475.187 84.618L443.109 128.529H464.67L485.968 99.4303L507.266 128.529H528.652L496.661 84.7057" fill="#08061D"/>
<path d="M611.215 43.0735H602.801V55.1688C595.877 45.6153 585.885 40.7947 572.826 40.7947C561.081 40.7947 551.002 45.0894 542.676 53.7664C534.349 62.4435 530.142 73.0487 530.142 85.7575C530.142 98.291 534.349 108.896 542.676 117.661C551.002 126.338 561.081 130.72 572.826 130.72C585.885 130.72 595.79 125.9 602.801 116.171V128.441H621.295V53.0653L611.215 43.0735ZM595.088 105.303C589.917 110.474 583.519 113.103 575.718 113.103C567.918 113.103 561.52 110.474 556.348 105.303C551.177 100.132 548.636 93.5581 548.636 85.7575C548.636 77.8693 551.177 71.3835 556.348 66.2123C561.52 61.0411 567.918 58.4117 575.718 58.4117C583.519 58.4117 589.917 61.0411 595.088 66.2123C600.26 71.3835 602.801 77.957 602.801 85.7575C602.801 93.6457 600.26 100.132 595.088 105.303Z" fill="#08061D"/>
<path d="M721.474 53.8532C713.148 45.1761 703.069 40.8815 691.324 40.8815C678.265 40.8815 668.361 45.702 661.349 55.2555V8.8904H642.855V118.186L653.198 128.528H661.349V116.258C668.273 125.986 678.265 130.807 691.324 130.807C703.069 130.807 713.148 126.425 721.474 117.748C729.801 109.071 734.008 98.3777 734.008 85.8442C734.008 73.1354 729.801 62.5302 721.474 53.8532ZM707.802 105.389C702.63 110.561 696.232 113.19 688.432 113.19C680.631 113.19 674.233 110.561 669.062 105.389C663.891 100.218 661.349 93.6448 661.349 85.8442C661.349 77.956 663.891 71.4702 669.062 66.299C674.233 61.1279 680.631 58.4984 688.432 58.4984C696.232 58.4984 702.63 61.1279 707.802 66.299C712.973 71.4702 715.514 78.0437 715.514 85.8442C715.514 93.6448 712.885 100.218 707.802 105.389Z" fill="#08061D"/>
<path d="M805.089 43.0735L783.177 105.127L757.585 43.0735H751.975L741.808 53.2405L773.712 126.951L772.835 128.617C770.556 134.577 767.664 138.871 764.07 141.676C760.565 144.481 755.832 145.708 750.047 145.357V162.624C769.68 163.763 783.616 153.245 791.854 131.158L824.722 43.0735H805.089Z" fill="#08061D"/>
<path d="M910.177 30.1892C913.333 30.1892 916.137 29.0498 918.504 26.6833C920.87 24.3169 922.01 21.5998 922.01 18.3569C922.01 15.2016 920.87 12.3969 918.591 10.0305C916.313 7.664 913.508 6.5246 910.177 6.5246C906.847 6.5246 904.042 7.664 901.763 10.0305C899.484 12.3969 898.345 15.114 898.345 18.3569C898.345 21.5122 899.484 24.3169 901.851 26.6833C904.217 29.0498 907.022 30.1892 910.177 30.1892Z" fill="#08061D"/>
<path d="M900.975 54.5552V128.529H919.469V43.0735H912.457C908.6 46.8423 904.744 50.6987 900.975 54.5552Z" fill="#08061D"/>
<path d="M1009.66 50.26C1003.61 44.0371 995.634 40.8818 985.817 40.8818C973.722 40.8818 964.87 45.2642 959.26 54.0288V43.073H955.053C950.32 47.8059 945.5 52.6265 940.767 57.3594V128.529H959.26V82.6893C959.26 74.3629 961.276 68.2276 965.22 64.1082C969.252 60.0765 974.423 58.0606 980.997 58.0606C986.957 58.0606 991.602 59.7259 995.02 63.1441C998.438 66.5623 1000.19 71.4705 1000.19 77.8688V128.441H1018.68V75.9405C1018.77 65.0723 1015.7 56.4829 1009.66 50.26Z" fill="#08061D"/>
<path d="M1114.57 43.0735H1106.77V55.6947C1099.85 45.7906 1089.85 40.7947 1076.97 40.7947C1064.87 40.7947 1054.62 45.0894 1046.29 53.6788C1037.97 62.2682 1033.76 72.6981 1033.76 84.881C1033.76 97.0639 1037.97 107.494 1046.29 116.083C1054.62 124.673 1064.87 128.967 1076.97 128.967C1089.85 128.967 1099.85 123.971 1106.77 114.067V124.585C1106.77 131.947 1104.49 137.732 1100.02 141.939C1095.46 146.058 1089.24 148.162 1081.26 148.162C1069.08 148.162 1060.75 143.78 1056.28 135.015L1040.33 144.218C1047.61 157.978 1061.19 164.903 1080.91 164.903C1093.1 164.903 1103.53 161.397 1112.12 154.473C1120.71 147.548 1125 137.557 1125 124.585V53.3282L1114.57 43.0735ZM1098.97 104.076C1093.8 109.159 1087.31 111.789 1079.51 111.789C1071.71 111.789 1065.22 109.247 1060.05 104.076C1054.88 98.9921 1052.25 92.5939 1052.25 84.9687C1052.25 77.3434 1054.88 70.9452 1060.05 65.8617C1065.22 60.7782 1071.71 58.1488 1079.51 58.1488C1087.31 58.1488 1093.8 60.6905 1098.97 65.8617C1104.14 70.9452 1106.77 77.3434 1106.77 84.9687C1106.77 92.5063 1104.14 98.9045 1098.97 104.076Z" fill="#08061D"/>
<path d="M137.628 95.984L108.784 135.261C101.77 144.817 88.2689 146.921 78.8003 139.908L36.2794 108.784C26.7231 101.77 24.619 88.2689 31.6328 78.8003L62.844 36.2794C69.8578 26.7231 83.3592 24.619 92.8278 31.6328L102.822 38.9534L66.3509 88.9703C73.1016 95.2826 83.2716 101.244 90.11 107.557C90.5484 107.031 90.899 106.417 91.3374 105.891L92.5385 104.12L92.5648 104.138L141.486 33.2109L109.135 9.45175C87.3922 -6.50456 56.6193 -1.77027 40.663 19.9724L9.45175 62.4933C-6.50456 84.3236 -1.77027 115.009 19.9724 130.965L62.4933 162.176C84.3236 178.133 115.009 173.398 130.965 151.656L177.168 88.6196L137.628 95.984Z" fill="#008DFF"/>
<path d="M276.237 39.1727L232.927 9.1012C210.746 -6.32907 180.149 -0.718061 164.719 21.463L120.181 85.6389L159.546 77.2224L187.338 37.1562C194.089 27.4247 207.503 24.9698 217.234 31.7206L260.544 61.7921C270.276 68.5428 272.731 81.9566 265.98 91.6882L235.908 134.998C229.158 144.73 215.744 147.185 206.012 140.434L195.807 133.341L230.999 82.3073C223.985 76.258 213.64 70.5593 206.714 64.4222C206.275 64.9483 205.924 65.562 205.574 66.1757L204.443 67.9379H204.434L157.354 140.171L190.319 163.053C212.5 178.484 243.097 172.873 258.528 150.692L288.599 107.382C304.029 85.2005 298.418 54.603 276.237 39.1727Z" fill="#008DFF"/>
</svg>
